<?xml version="1.0" encoding="utf-8"?>
<!-- Generator: Adobe Illustrator 23.1.1, SVG Export Plug-In . SVG Version: 6.00 Build 0)  -->
<svg version="1.1" id="レイヤー_1" xmlns="http://www.w3.org/2000/svg" xmlns:xlink="http://www.w3.org/1999/xlink" x="0px"
	 y="0px" viewBox="0 0 256 256" style="enable-background:new 0 0 256 256;" xml:space="preserve">
<style type="text/css">
	.st0{fill:#19B3E7;}
	.st1{fill:#7F7F7F;}
	.st2{fill:#333333;}
	.st3{fill:#CFD6DD;}
	.st4{fill:#FFFFFF;}
	.st5{fill:#79A0AA;}
	.st6{fill:none;}
	.st7{fill:#C2C3C6;}
	.st8{fill:#E04C3C;}
	.st9{fill:#345870;}
	.st10{fill:#F9F9F9;}
	.st11{fill:#B7BFC7;}
	.st12{fill:#FCB924;}
	.st13{fill:#0E3451;}
	.st14{opacity:0.2;fill:#FFFFFF;}
	.st15{opacity:0.4;}
	.st16{fill:#405F78;}
	.st17{fill:#E3B75A;}
	.st18{fill:#F7CD59;}
	.st19{fill:#86D0EB;}
	.st20{fill:#3F5D77;}
	.st21{fill:#3D3D3D;}
	.st22{fill:#515151;}
	.st23{fill:#C2DA70;}
	.st24{fill:#0098D8;}
	.st25{fill:#F2F2F2;}
	.st26{fill:#878787;}
	.st27{fill:#6B6B6B;}
</style>
<g>
	<rect class="st0" width="256" height="256"/>
</g>
<polygon class="st1" points="128,77.5 45.5,105 18,77.5 100.5,50 "/>
<polygon class="st1" points="128,77.5 210.5,105 238,77.5 155.5,50 "/>
<polygon class="st2" points="45.5,105 128,132.5 128,77.5 "/>
<polygon class="st2" points="128,77.5 128,132.5 210.5,105 "/>
<g>
	
		<rect x="158.9" y="119.1" transform="matrix(0.354 -0.9352 0.9352 0.354 -32.8157 243.456)" class="st3" width="1.9" height="52.7"/>
	<path class="st4" d="M192,92.4l5.3-14.1L162.1,65l-0.7,1.8l-25.9,68.5l49.3,18.7l20.6-54.5l0.7-1.8L192,92.4z M177.9,119.2
		l-21.4-8.1l1.3-3.5l21.4,8.1L177.9,119.2z M187.7,114.8l-28.5-10.8l1.3-3.5l28.5,10.8L187.7,114.8z M190.5,107.9L161.8,97l1.3-3.5
		l28.7,10.9L190.5,107.9z"/>
	
		<rect x="174.9" y="85.3" transform="matrix(0.354 -0.9352 0.9352 0.354 20.0539 230.3719)" class="st5" width="3.8" height="30.7"/>
	
		<rect x="172.2" y="92.5" transform="matrix(0.354 -0.9352 0.9352 0.354 11.7606 232.4243)" class="st5" width="3.8" height="30.5"/>
	<polygon class="st5" points="156.4,111 185.2,121.7 186.6,118.1 157.8,107.5 	"/>
	<polygon class="st5" points="153.9,118.4 182.7,129 184.1,125.5 155.3,114.9 	"/>
	<polygon class="st5" points="150.9,125.7 179.7,136.3 181,132.8 152.2,122.2 	"/>
	<polygon class="st3" points="192,92.4 206.1,97.7 197.4,78.3 	"/>
</g>
<g>
	<g>
		<path class="st6" d="M89.4,56.2c-0.9-3.5-4.4-5.8-8.1-5.2c-3.8,0.6-6.4,4.1-6,7.9c0,0.1,0,0.2,0.1,0.4l0.8,5l7.1-1.2l7.1-1.2
			l-0.8-5C89.5,56.7,89.5,56.5,89.4,56.2z"/>
	</g>
	<g>
		<path class="st7" d="M73,59.7c-0.9-5.2,2.7-10.2,7.9-11c5.2-0.9,10.2,2.7,11,7.9l0.8,5l2.4-0.4l-0.8-5c-1.1-6.5-7.2-11-13.8-9.9
			c-6.5,1.1-11,7.2-9.9,13.8l0.8,5l2.4-0.4L73,59.7z"/>
	</g>
	<g>
		<path class="st7" d="M80.9,48.6c-5.2,0.9-8.8,5.8-7.9,11l0.8,5l2.4-0.4l-0.8-5c0-0.1,0-0.2-0.1-0.4c-0.4-3.8,2.2-7.3,6-7.9
			c3.7-0.6,7.2,1.7,8.1,5.2c0.1,0.2,0.1,0.5,0.2,0.7l0.8,5l2.4-0.4l-0.8-5C91.1,51.3,86.1,47.8,80.9,48.6z"/>
	</g>
	<g>
		<polygon class="st8" points="83.3,63.1 76.1,64.3 73.8,64.7 71.4,65.1 67.8,65.7 71.6,89 87,86.5 		"/>
	</g>
	<g>
		<polygon class="st8" points="95.1,61.2 92.7,61.6 90.4,62 83.3,63.1 87,86.5 102.5,84 98.7,60.6 		"/>
	</g>
</g>
<path class="st9" d="M182.1,47.1c0.1-0.6,0.1-1.2,0.1-1.9c0-0.6,0-1.3-0.1-1.9h-4.2c-0.1-1-0.4-1.9-0.7-2.8l3.7-2.1
	c-0.5-1.2-1.1-2.2-1.9-3.2l-3.7,2.1c-0.6-0.7-1.3-1.4-2-2l2.1-3.7c-1-0.7-2.1-1.4-3.2-1.9l-2.1,3.7c-0.9-0.3-1.8-0.6-2.8-0.7v-4.2
	c-0.6-0.1-1.2-0.1-1.9-0.1c-0.6,0-1.3,0-1.9,0.1v4.2c-1,0.1-1.9,0.4-2.8,0.7l-2.1-3.7c-1.2,0.5-2.2,1.1-3.2,1.9l2.1,3.7
	c-0.7,0.6-1.4,1.3-2,2l-3.7-2.1c-0.7,1-1.4,2.1-1.9,3.2l3.7,2.1c-0.3,0.9-0.6,1.8-0.7,2.8h-4.2c-0.1,0.6-0.1,1.2-0.1,1.9
	c0,0.6,0,1.3,0.1,1.9h4.2c0.1,1,0.4,1.9,0.7,2.8l-3.7,2.1c0.5,1.2,1.1,2.2,1.9,3.2l3.7-2.1c0.6,0.7,1.3,1.4,2,2l-2.1,3.7
	c1,0.7,2.1,1.4,3.2,1.9l2.1-3.7c0.9,0.3,1.8,0.6,2.8,0.7V62c0.6,0.1,1.2,0.1,1.9,0.1c0.6,0,1.3,0,1.9-0.1v-4.2
	c1-0.1,1.9-0.4,2.8-0.7l2.1,3.7c1.2-0.5,2.2-1.1,3.2-1.9l-2.1-3.7c0.7-0.6,1.4-1.3,2-2l3.7,2.1c0.7-1,1.4-2.1,1.9-3.2l-3.7-2.1
	c0.3-0.9,0.6-1.8,0.7-2.8H182.1z M165.3,53.1c-4.3,0-7.8-3.5-7.8-7.8s3.5-7.8,7.8-7.8c4.3,0,7.8,3.5,7.8,7.8S169.6,53.1,165.3,53.1z
	"/>
<g>
	<polygon class="st10" points="92.1,67.1 97.8,103.5 120.5,81.3 	"/>
	<polygon class="st10" points="97.8,103.5 148.8,95.6 120.5,81.3 	"/>
	<polygon class="st10" points="120.5,81.3 148.8,95.6 143.2,59.2 	"/>
	<polygon class="st11" points="143.2,59.2 92.1,67.1 121.2,86.2 	"/>
	<polygon class="st4" points="143.2,59.2 92.1,67.1 121,84.6 	"/>
</g>
<g>
	<path class="st6" d="M194.5,78.9c-0.3-0.2-0.5-0.3-0.8-0.5l1.6,1.1C195,79.3,194.8,79.1,194.5,78.9z"/>
	<path class="st12" d="M176.8,112.6l-1.6-1.1l-1.6-1.1l-1.6-1.1l-1.6-1.1c-1.2,1.7-0.8,4.1,0.9,5.3
		C173.2,114.7,175.6,114.3,176.8,112.6z"/>
	<path class="st13" d="M190.6,53.1c-5.8,8.3-4,19.6,4,25.8c0.2,0.2,0.5,0.4,0.8,0.6c8.6,6,20.3,3.9,26.3-4.7
		c6-8.6,3.9-20.3-4.7-26.3c-0.3-0.2-0.5-0.4-0.8-0.5C207.6,42.6,196.3,44.8,190.6,53.1z M214.7,51.5c6.8,4.8,8.5,14.2,3.8,21
		c-4.8,6.8-14.2,8.5-21,3.8c-0.3-0.2-0.5-0.4-0.8-0.6c-6.2-4.9-7.6-13.9-3-20.5c4.6-6.6,13.5-8.4,20.3-4.3
		C214.2,51.2,214.4,51.3,214.7,51.5z"/>
	<path class="st14" d="M218.5,72.6c4.8-6.8,3.1-16.3-3.8-21c-0.3-0.2-0.5-0.4-0.8-0.5c-6.8-4.1-15.7-2.3-20.3,4.3
		c-4.6,6.6-3.2,15.6,3,20.5c0.2,0.2,0.5,0.4,0.8,0.6C204.3,81.1,213.7,79.4,218.5,72.6z"/>
	<g class="st15">
		<path class="st4" d="M197,58.8c-0.5-0.4-0.6-1.2-0.2-1.8c3.3-4.8,9.9-6.2,14.9-3.1c0.6,0.4,0.8,1.2,0.4,1.8
			c-0.4,0.6-1.2,0.8-1.8,0.4c-3.8-2.3-8.8-1.3-11.4,2.4C198.5,59.2,197.7,59.3,197,58.8C197.1,58.9,197,58.9,197,58.8z"/>
	</g>
	<polygon class="st13" points="192.5,86.7 196.8,80.5 195.3,79.4 193.7,78.4 189.4,84.6 191,85.7 	"/>
	<polygon class="st16" points="188.8,88.7 191.9,90.9 194.1,87.8 192.5,86.7 191,85.7 	"/>
	<polygon class="st13" points="187.7,90.3 173.7,110.4 175.2,111.5 176.8,112.6 190.8,92.4 	"/>
	<polygon class="st16" points="188.8,88.7 191,85.7 189.4,84.6 187.8,83.5 185.7,86.6 	"/>
	<polygon class="st13" points="173.7,110.4 187.7,90.3 184.6,88.1 170.6,108.3 172.1,109.4 	"/>
	<polygon class="st12" points="187.7,90.3 190.8,92.4 191.9,90.9 188.8,88.7 185.7,86.6 184.6,88.1 	"/>
</g>
<g>
	<g>
		<path class="st17" d="M149.9,94.4c0.1-1.3-0.8-2.5-2.2-2.6l-2.4-0.2l-7.1-0.6c-1.3-0.1-2.5,0.8-2.6,2.2L149.9,94.4z"/>
		<path class="st17" d="M103.9,90.2c-0.8-0.1-1.6,0.5-1.6,1.4l-0.4,4.4c-0.1,0.8,0.5,1.6,1.4,1.6l49.3,4.5c0.8,0.1,1.6-0.5,1.6-1.4
			l0.4-4.4c0.1-0.8-0.5-1.6-1.4-1.6L103.9,90.2z"/>
		
			<rect x="126.8" y="72.5" transform="matrix(9.032474e-02 -0.9959 0.9959 9.032474e-02 21.1459 214.7435)" class="st4" width="2.7" height="46.7"/>
		<path class="st18" d="M153.6,133.7c-0.1,1.5-1.4,2.5-2.9,2.4l-51.8-4.7c-1.5-0.1-2.5-1.4-2.4-2.9L99.3,97c0.1-1.5,1.4-2.5,2.9-2.4
			l51.8,4.7c1.5,0.1,2.5,1.4,2.4,2.9L153.6,133.7z"/>
	</g>
	<g>
		<polygon class="st16" points="129,126.6 122.3,126 123.1,115.8 129.8,116.3 		"/>
		<polygon class="st16" points="133.8,116.9 119,115.7 127,105.4 127,105.4 		"/>
	</g>
</g>
<g>
	<g>
		
			<rect x="54.8" y="78.3" transform="matrix(0.8755 -0.4832 0.4832 0.8755 -39.2164 48.4868)" class="st4" width="39.3" height="44.1"/>
	</g>
	<g>
		<polygon class="st19" points="79.8,75.8 94.8,103 65.9,118.9 50.9,91.8 79.8,75.8 		"/>
	</g>
	<g>
		<polygon class="st13" points="78.3,112.1 79.8,95.4 94.8,103 		"/>
	</g>
	<g>
		<path class="st12" d="M73.9,86.3c0.8,1.5,0.3,3.4-1.2,4.3c-1.5,0.8-3.4,0.3-4.3-1.2c-0.8-1.5-0.3-3.4,1.2-4.3
			C71.2,84.2,73.1,84.8,73.9,86.3z"/>
	</g>
	<g>
		<polygon class="st20" points="65.9,118.9 67.9,96.6 87.9,106.8 		"/>
	</g>
</g>
<polygon class="st21" points="45.5,105 45.5,132.5 45.5,198.8 128,226.3 128,160 128,132.5 "/>
<polygon class="st22" points="128,132.5 128,160 128,226.3 210.5,198.8 210.5,132.5 210.5,105 "/>
<g>
	<g>
		<path class="st23" d="M154.8,176.4c-0.5,0.4-0.8,0.3-0.8-0.3l0.6-7.3c0-0.5,0.4-1.3,0.8-1.8l17.6-20.8v14.6L154.8,176.4z"/>
		<path class="st23" d="M172.9,165.6v13.9l-19,9.2c-0.5,0.2-0.9,0-0.9-0.5l0.5-7c0-0.5,0.5-1.3,0.9-1.6L172.9,165.6z"/>
		<path class="st23" d="M153.2,198.8c-0.5,0-0.9-0.4-0.8-1l0.4-5c0-0.5,0.5-1.1,1-1.3l19.2-7.7v15.3L153.2,198.8z"/>
	</g>
	<g>
		<path class="st24" d="M191.1,165.2c0.5,0.1,0.8-0.2,0.8-0.7l-0.6-7c0-0.5-0.4-1.1-0.8-1.3l-17.6-9.9v14.6L191.1,165.2z"/>
		<path class="st24" d="M172.9,165.6v13.9l19-2.5c0.5-0.1,0.9-0.5,0.9-1l-0.5-6.7c0-0.5-0.5-1-0.9-1L172.9,165.6z"/>
		<path class="st24" d="M192.7,186.6c0.5-0.3,0.9-1,0.8-1.5l-0.4-4.7c0-0.5-0.5-0.8-1-0.7l-19.2,4.1v15.3L192.7,186.6z"/>
	</g>
</g>
<g>
	<path class="st25" d="M82.8,142.1c-13.3-5.1-24.8,3.3-25.7,18.8c-0.9,15.5,9.3,32.3,22.6,37.4c13.3,5.1,24.8-3.3,25.7-18.8
		C106.3,164,96.1,147.3,82.8,142.1z M95.8,194.3c-4.2,3.1-9.9,3.8-16,1.5c-6.1-2.3-11.4-7.3-15.1-13.5c-3.7-6.2-5.8-13.5-5.4-20.6
		c0.4-7,3.2-12.5,7.4-15.6c4.2-3.1,9.9-3.8,16-1.5c6.1,2.3,11.4,7.3,15.1,13.5c3.7,6.2,5.8,13.5,5.4,20.6
		C102.9,185.7,100,191.2,95.8,194.3z"/>
	<path class="st25" d="M64.4,154.5l-0.1-0.1c-1.2,2.3-2,5.2-2.1,8.4c-0.5,8.8,3.4,18,9.6,24.1L64.4,154.5L64.4,154.5z"/>
	<path class="st25" d="M92.6,166.3c-1.5-3.3-1-8.7,2.1-8.1c-3.2-4.7-7.4-8.4-12.2-10.2c-6.8-2.6-13-0.8-16.7,4.1l7,2.7l-0.2,2.9
		l-2.8-1.1l5.4,23.8l5.4-12.5l-1.8-7.9l-3.3-1.3l0.2-2.9l11.7,4.5l-0.2,2.9l-3.1-1.2l5.4,24l3.9-9.1
		C94.2,174.5,94.1,169.8,92.6,166.3z"/>
	<path class="st25" d="M99.5,168.9c0,0.1,0,0.2,0,0.2c-0.7,3.4-4,10.2-4,10.2l-4.9,11.3l-1.1,2.5c6.1-1.5,10.4-7.3,10.9-15.6
		C100.6,174.7,100.2,171.7,99.5,168.9z"/>
	<path class="st25" d="M76.2,184.9l-1.8,4.3c1.8,1.4,3.7,2.5,5.7,3.2c2.2,0.8,4.3,1.2,6.3,1.2l-4.8-21.2L76.2,184.9z"/>
</g>
<polygon class="st26" points="18.4,132.5 100.9,160 128.4,132.5 45.9,105 "/>
<polygon class="st27" points="238,132.5 155.5,160 128,132.5 210.5,105 "/>
</svg>
